<?xml version="1.0" encoding="utf-8"?>
<svg viewBox="0 0 160 34" xmlns="http://www.w3.org/2000/svg">
  <g stroke="none" stroke-width="1" fill="none" fill-rule="evenodd" transform="matrix(1, 0, 0, 1, 0.198887, -0.439711)">
    <g transform="translate(-150.000000, -3578.000000)" fill-rule="nonzero">
      <g transform="translate(0.000000, 3543.000000)">
        <g transform="translate(150.000000, 35.000000)">
          <path d="M14.2478506,8.14631076 C14.208113,7.06835726 13.7266859,6.0575211 12.921843,5.36213769 C11.908212,4.67252911 10.7012982,4.34379977 9.48726589,4.42665554 C6.661348,4.42665554 5.24838906,5.41410892 5.24838906,7.38901568 C5.24838906,8.09008673 5.570531,8.75024382 6.11790225,9.17088644 C6.96798042,9.76883158 7.93045797,10.1784798 8.94382014,10.3736492 C10.4799601,10.7448723 11.8059677,11.0863975 12.921843,11.3982249 C13.9744079,11.6876188 15.0058635,12.0523125 16.0086149,12.4896207 C16.5288895,12.7089295 17.0244944,12.9852406 17.4867873,13.313736 C17.9491364,13.6435825 18.3472515,14.0590601 18.6606301,14.5387721 C19.0028249,15.0807388 19.2595786,15.6745464 19.4214541,16.2983695 C19.6267788,17.1127105 19.7218663,17.9521087 19.7040459,18.7929885 C19.724289,19.877645 19.4775847,20.9500549 18.9866975,21.9112624 C18.5055618,22.7875709 17.8456781,23.5472801 17.0520307,24.1386008 C16.1869812,24.786654 15.214961,25.2695475 14.1826371,25.5640974 C13.0521695,25.8972516 11.8808547,26.0622753 10.7045844,26.0541119 C7.95229479,26.2556679 5.2113134,25.5281149 2.90070343,23.9826871 C1.10623763,22.4974184 0.0863278921,20.2427712 0.139999035,17.8797798 L4.94405944,17.8797798 C4.92525075,19.0576834 5.47931231,20.1680612 6.42223187,20.8421399 C7.48576336,21.5975721 8.75917048,21.9804117 10.0524495,21.9335358 C11.3063493,22.0235109 12.5572981,21.7205474 13.6391914,21.0648738 C14.3925931,20.5479205 14.8418529,19.6774818 14.834772,18.7484418 C14.8865173,18.386575 14.8865173,18.0189128 14.834772,17.6570459 C14.7270567,17.3138514 14.5319573,17.0063037 14.2695885,16.7661106 C13.9370202,16.4617392 13.5542713,16.2203985 13.1392213,16.0533623 C12.5103386,15.8296617 11.862728,15.6656342 11.2045544,15.5633478 C9.39306862,15.1772758 7.82069893,14.7837793 6.48744536,14.3828584 C5.32565914,14.0592056 4.21880941,13.5559872 3.20503305,12.8905417 C2.38324622,12.3381786 1.72232757,11.5686312 1.29210402,10.6632032 C0.853371258,9.63984763 0.645332294,8.52834746 0.683444782,7.41128907 C0.656647069,6.38823451 0.841869066,5.37098526 1.22689053,4.42665554 C1.59974949,3.56188909 2.16563897,2.79895318 2.8789656,2.19931709 C3.68888277,1.51415648 4.6183031,0.992648761 5.61793217,0.662453565 C6.86128798,0.256723 8.16082131,0.061128097 9.46552806,0.0833455678 C10.7768503,0.0690175145 12.0823263,0.264402988 13.3348618,0.662453565 C14.4106647,1.00003543 15.4139546,1.5442749 16.2912066,2.26613725 C17.1066816,2.95476609 17.7604732,3.82258994 18.2041357,4.80530308 C18.6691042,5.83350624 18.9278267,6.94691216 18.9649597,8.0794906 L14.2478506,8.0794906 L14.2478506,8.14631076 Z" id="Path" fill="#000000"/>
          <path d="M31.0077175,25.2968168 C30.8557988,24.7746406 30.7610191,24.2367745 30.7251257,23.6931331 C30.1241431,24.3629163 29.3801796,24.8812753 28.5513427,25.2077233 C27.5473021,25.6084741 26.4767376,25.8051668 25.3993574,25.7868313 C23.8049414,25.9448189 22.2116237,25.4749566 20.9431022,24.4727016 C19.9917191,23.5405006 19.4770891,22.2343966 19.5301433,20.8866867 C19.483478,19.8192612 19.6924413,18.7563502 20.1388025,17.7906862 C20.5233584,17.0365872 21.1022645,16.4049011 21.8126154,15.9642687 C22.6072455,15.4909875 23.4746271,15.1595887 24.3776794,14.9842398 C25.3631276,14.7763549 26.4427732,14.5833189 27.616616,14.4051318 C28.4418496,14.3455678 29.247281,14.1184279 29.9860395,13.7369303 C30.4119701,13.3938509 30.6437445,12.8563834 30.6045248,12.3027096 C30.5653051,11.7490358 30.2602152,11.2514943 29.790399,10.9750306 C29.1220772,10.6141362 28.3710517,10.44484 27.616616,10.4850161 C26.7835393,10.404612 25.9537243,10.6693153 25.312406,11.2200378 C24.8289671,11.7548807 24.5244015,12.433631 24.4428928,13.1578223 L20.0953269,13.1578223 C20.1133206,12.2845407 20.2674295,11.4198195 20.5518213,10.596383 C20.8207947,9.81743271 21.2768081,9.12039044 21.8778289,8.56950506 C22.5660185,7.96665437 23.374804,7.52568862 24.2472524,7.27764876 C25.4268973,6.93067527 26.6503728,6.76552796 27.87747,6.7876343 C29.0678139,6.75685742 30.2556567,6.91463064 31.3989984,7.25537538 C32.2714244,7.51731704 33.0693079,7.99103236 33.7249462,8.63632521 C34.3189248,9.2601916 34.7521874,10.0256001 34.9857403,10.8636637 C35.259445,11.8484774 35.3912639,12.8689806 35.3770213,13.892844 L35.3770213,25.2968168 L31.0294553,25.2968168 L31.0077175,25.2968168 Z M30.68165,16.387463 C30.3837571,16.6627989 30.0260475,16.861332 29.6382342,16.966571 C28.9874915,17.1586201 28.3271617,17.3147581 27.6600917,17.4343121 C26.6770336,17.5615995 25.7339753,17.9115951 24.8993873,18.4588878 C24.3865459,18.9069095 24.1055144,19.5733204 24.1385632,20.2630319 C24.097329,20.8490565 24.3208551,21.4220554 24.7449584,21.8174976 C25.1690617,22.2129398 25.7468238,22.3870779 26.3123462,22.2899099 C26.8846047,22.2965156 27.4527944,22.1906632 27.9861591,21.9780825 C28.9435438,21.5877051 29.7205162,20.8393573 30.1599421,19.8843844 C30.387576,19.413485 30.5065723,18.8952908 30.5077474,18.3697942 L30.68165,16.387463 Z" id="Shape" fill="#000000"/>
          <polygon id="Path" fill="#000000" points="40.9201679 25.2968168 34.6161972 7.25537538 39.8115386 7.25537538 43.5069697 19.1716361 47.2241386 7.25537538 52.1368881 7.25537538 45.8111796 25.2968168"/>
          <polygon id="Path" fill="#000000" points="57.8321995 25.2968168 51.5282289 7.25537538 56.7235702 7.25537538 60.4842148 19.1716361 64.2013837 7.25537538 69.1141333 7.25537538 62.6579978 25.2968168"/>
          <path d="M 80.418 22.914 C 80.06 23.748 79.419 24.42 78.614 24.807 C 77.693 25.264 76.68 25.493 75.657 25.475 C 74.774 25.483 73.898 25.324 73.07 25.007 C 72.307 24.72 71.611 24.272 71.027 23.693 C 70.447 23.111 69.988 22.414 69.679 21.644 C 69.34 20.788 69.17 19.872 69.179 18.949 L 69.179 7.255 L 73.831 7.255 L 73.831 18.258 C 73.664 19.138 73.91 20.047 74.495 20.713 C 75.081 21.379 75.938 21.724 76.809 21.644 C 77.761 21.685 78.69 21.341 79.396 20.686 C 80.048 20.059 80.404 19.174 80.374 18.258 L 80.374 7.255 L 85.026 7.255 L 85.026 25.787 C 85.044 26.955 84.829 28.114 84.396 29.195 C 84.008 30.157 83.422 31.023 82.679 31.734 C 81.921 32.462 81.026 33.023 80.048 33.382 C 79.03 33.756 77.956 33.945 76.875 33.939 C 74.744 34.109 72.638 33.377 71.049 31.912 C 69.702 30.364 69.027 28.322 69.179 26.255 L 73.527 26.255 C 73.474 27.194 73.804 28.114 74.44 28.794 C 75.198 29.459 76.184 29.787 77.179 29.707 C 77.599 29.711 78.015 29.62 78.396 29.44 C 78.781 29.257 79.128 29 79.418 28.682 C 79.704 28.312 79.918 27.888 80.048 27.435 C 80.23 26.921 80.319 26.378 80.309 25.831 L 80.309 22.914 L 80.418 22.914 Z" id="Path" fill="#000000"/>
          <path d="M106.872744,16.9442976 C106.63469,18.2626344 106.20994,19.5382635 105.61195,20.730773 C105.062092,21.8213277 104.325848,22.8020253 103.438167,23.626313 C102.555795,24.4405293 101.530408,25.0754544 100.416608,25.4972773 C99.1983604,25.9535923 97.9095069,26.179982 96.6124881,26.1654788 C95.1270972,26.1793168 93.6523711,25.9073262 92.2649221,25.363637 C90.9228021,24.8353207 89.7177155,23.9968923 88.7433936,22.9135647 C87.767255,21.7459259 87.0282414,20.390501 86.5696107,18.9266289 C85.9459588,17.1328224 85.6368683,15.2401297 85.6566218,13.3360093 C85.6289021,11.4508265 85.8855356,9.5725676 86.4174458,7.76766322 C86.8592212,6.23602185 87.5986248,4.8116958 88.5912288,3.58026693 C89.5459134,2.44102794 90.7433204,1.54180378 92.0910194,0.952007563 C93.5488117,0.323712581 95.1181391,0.0127332108 96.6994394,0.0387987988 C98.0693068,0.0226076535 99.4310492,0.25641327 100.720938,0.729273718 C101.865171,1.15208277 102.920194,1.79464424 103.829448,2.6225114 C104.729644,3.40868171 105.468527,4.3701809 106.003231,5.45123123 C106.487869,6.53323818 106.782227,7.69443417 106.872744,8.88133244 L101.894781,8.88133244 C101.631036,7.60287544 100.948341,6.45535807 99.9601139,5.62941831 C98.7811518,4.71149151 97.2927722,4.31503279 95.8267789,4.52842459 C94.3607857,4.74181639 93.0390525,5.54731863 92.1562329,6.76536092 C91.081694,8.66879222 90.5682797,10.8504076 90.6780605,13.0464553 C90.5569633,15.2548908 91.0628289,17.4519851 92.1344951,19.3720965 C93.0925357,20.8555924 94.7489761,21.7042174 96.4820611,21.599435 C97.778584,21.6658858 99.0517992,21.228373 100.047065,20.3743988 C101.014557,19.425049 101.66175,18.1845907 101.894781,16.8329307 L106.872744,16.8329307 L106.872744,16.9442976 Z" id="Path" fill="#F68A1F"/>
          <path d="M117.937299,25.2968168 C117.78538,24.7746406 117.690601,24.2367745 117.654707,23.6931331 C117.053725,24.3629163 116.309761,24.8812753 115.480924,25.2077233 C114.476884,25.6084741 113.406319,25.8051668 112.328939,25.7868313 C110.727277,25.9506295 109.125134,25.480458 107.850946,24.4727016 C106.899563,23.5405006 106.384933,22.2343966 106.437987,20.8866867 C106.391322,19.8192612 106.600285,18.7563502 107.046646,17.7906862 C107.431202,17.0365872 108.010108,16.4049011 108.720459,15.9642687 C109.514908,15.4905941 110.382357,15.1591695 111.285523,14.9842398 C112.270972,14.7763549 113.350617,14.5833189 114.52446,14.4051318 C115.349693,14.3455678 116.155125,14.1184279 116.893883,13.7369303 C117.319814,13.3938509 117.551588,12.8563834 117.512369,12.3027096 C117.473149,11.7490358 117.168059,11.2514943 116.698243,10.9750306 C116.029921,10.6141362 115.278896,10.44484 114.52446,10.4850161 C113.70618,10.3734567 112.878017,10.5976062 112.22025,11.1086709 C111.736811,11.6435138 111.432245,12.3222641 111.350737,13.0464553 L107.003171,13.0464553 C107.021165,12.1731738 107.175273,11.3084526 107.459665,10.4850161 C107.728639,9.70606578 108.184652,9.00902351 108.785673,8.45813814 C109.473862,7.85528745 110.282648,7.4143217 111.155096,7.16628184 C112.354275,6.85244601 113.592633,6.72480841 114.82879,6.7876343 C116.019133,6.75685742 117.206976,6.91463064 118.350318,7.25537538 C119.222744,7.51731704 120.020627,7.99103236 120.676266,8.63632521 C121.270244,9.2601916 121.703507,10.0256001 121.93706,10.8636637 C122.210765,11.8484774 122.342583,12.8689806 122.328341,13.892844 L122.328341,25.2968168 L117.980775,25.2968168 L117.937299,25.2968168 Z M117.611232,16.387463 C117.313339,16.6627989 116.955629,16.861332 116.567816,16.966571 C115.917073,17.1586201 115.256743,17.3147581 114.589673,17.4343121 C113.606615,17.5615995 112.663557,17.9115951 111.828969,18.4588878 C111.316128,18.9069095 111.035096,19.5733204 111.068145,20.2630319 C111.026911,20.8490565 111.250437,21.4220554 111.67454,21.8174976 C112.098643,22.2129398 112.676406,22.3870779 113.241928,22.2899099 C113.814186,22.2965156 114.382376,22.1906632 114.915741,21.9780825 C115.873126,21.5877051 116.650098,20.8393573 117.089524,19.8843844 C117.317158,19.413485 117.436154,18.8952908 117.437329,18.3697942 L117.611232,16.387463 Z" id="Shape" fill="#F68A1F"/>
          <path d="M123.24133,25.2968168 L123.24133,7.25537538 L127.588896,7.25537538 L127.588896,9.48271382 C127.908344,8.93701799 128.312122,8.44806998 128.784476,8.03494383 C129.17145,7.70488322 129.603554,7.43473057 130.067008,7.23310199 C130.497473,7.04937277 130.951275,6.92937731 131.414754,6.87672784 C131.878174,6.85174293 132.342555,6.85174293 132.805975,6.87672784 L133.414634,6.87672784 L133.414634,11.7991458 C132.987839,11.7632901 132.558897,11.7632901 132.132102,11.7991458 C130.927,11.5851548 129.69561,11.9850133 128.830772,12.8711579 C127.965935,13.7573025 127.57569,15.0190303 127.784536,16.2538227 L127.784536,25.653191 L123.132641,25.653191 L123.24133,25.2968168 Z" id="Path" fill="#F68A1F"/>
          <path d="M155.413318,0.350626182 C156.868908,0.238915698 158.263083,0.971323858 159.024189,2.24754074 C159.785295,3.52375763 159.785295,5.129093 159.024189,6.40530989 C158.263083,7.68152677 156.868908,8.41393493 155.413318,8.30222445 C153.957728,8.41393493 152.563552,7.68152677 151.802447,6.40530989 C151.041341,5.129093 151.041341,3.52375763 151.802447,2.24754074 C152.563552,0.971323858 153.957728,0.238915698 155.413318,0.350626182 L155.413318,0.350626182 L155.413318,0.350626182 Z M155.413318,1.15246802 C153.702538,1.15246802 152.315677,2.57349711 152.315677,4.32642531 C152.315677,6.07935352 153.702538,7.5003826 155.413318,7.5003826 C157.037593,7.46384739 158.328733,6.09116302 158.304449,4.42665554 C158.327814,3.59789175 158.025781,2.79415449 157.465998,2.19546008 C156.906215,1.59676567 156.135461,1.25314549 155.326367,1.24156156 L155.326367,1.24156156 L155.413318,1.15246802 Z M154.826396,6.38671338 L153.956883,6.38671338 L153.956883,2.39977756 C154.446424,2.32694811 154.940384,2.28973271 155.435056,2.28841063 C155.898235,2.24430165 156.363009,2.35359896 156.761063,2.60023802 C157.020021,2.79874602 157.166486,3.11556864 157.152344,3.44662663 C157.121551,3.90893727 156.791756,4.29252172 156.348045,4.38210878 L156.348045,4.38210878 C156.741441,4.53629047 157.012484,4.90947793 157.043655,5.33986431 C157.093141,5.67121063 157.188288,5.9936801 157.326247,6.29761984 L156.39152,6.29761984 C156.240448,5.99722408 156.137683,5.67381373 156.087191,5.33986431 C156.066553,5.1468983 155.967594,4.97174696 155.814555,4.85731855 C155.661516,4.74289014 155.468536,4.69975595 155.282891,4.73848293 L154.848134,4.73848293 L154.848134,6.31989323 L154.826396,6.38671338 Z M154.826396,4.15937493 L155.261153,4.15937493 C155.761123,4.15937493 156.152404,3.98118785 156.152404,3.58026693 C156.152404,3.17934601 155.89155,2.97888555 155.326367,2.97888555 C155.160265,2.95918249 154.992499,2.95918249 154.826396,2.97888555 L154.826396,4.11482816 L154.826396,4.15937493 Z" id="Shape" fill="#F68A1F"/>
          <path d="M145.261751,25.2968168 L145.261751,23.0694784 C144.237295,24.8278502 142.344448,25.8576635 140.349002,25.7422845 C139.284716,25.754071 138.230916,25.5259522 137.26223,25.074083 C136.33298,24.6308788 135.515046,23.9756486 134.871069,23.1585719 C134.166798,22.2512708 133.635813,21.2160335 133.305945,20.1071182 C132.908652,18.7875504 132.717893,17.4118224 132.740761,16.0310889 C132.724559,14.7594308 132.885594,13.4919135 133.218994,12.2668869 C133.505997,11.1979568 133.985188,10.1933022 134.631953,9.30452675 C135.205613,8.50557637 135.94891,7.85059235 136.805736,7.38901568 C137.763014,6.92574196 138.812343,6.69698004 139.87077,6.72081415 C141.967523,6.68732527 143.935493,7.75436589 145.087849,9.54953398 L145.087849,0.64018018 L149.674531,0.64018018 L149.674531,25.2968168 L145.261751,25.2968168 Z M141.392418,21.888989 C142.494803,21.8960323 143.535175,21.3671625 144.196598,20.4634924 C144.987789,19.3894442 145.387643,18.0657822 145.326965,16.7215638 C145.326965,12.816297 144.029941,10.8636637 141.435893,10.8636637 C138.841846,10.8636637 137.508592,12.719779 137.436133,16.4320098 C137.374507,17.8350589 137.763979,19.2200578 138.544762,20.3743988 C139.209962,21.3671552 140.326878,21.9393721 141.501107,21.888989 L141.392418,21.888989 Z" id="Shape" fill="#F68A1F"/>
        </g>
      </g>
    </g>
  </g>
</svg>