<?xml version="1.0" encoding="utf-8"?><svg xmlns="http://www.w3.org/2000/svg" xmlns:xlink="http://www.w3.org/1999/xlink"><symbol viewBox="0 0 477.175 477.175" id="arrow" xmlns="http://www.w3.org/2000/svg"><path d="M360.731 229.075l-225.1-225.1c-5.3-5.3-13.8-5.3-19.1 0s-5.3 13.8 0 19.1l215.5 215.5-215.5 215.5c-5.3 5.3-5.3 13.8 0 19.1 2.6 2.6 6.1 4 9.5 4 3.4 0 6.9-1.3 9.5-4l225.1-225.1c5.3-5.2 5.3-13.8.1-19z"/></symbol><symbol viewBox="0 0 170 50" fill="none" id="basic-logo" xmlns="http://www.w3.org/2000/svg"><path fill="#FF4848" d="M0 0h48v49.5H0z"/><ellipse cx="85" cy="24.75" rx="24" ry="24.75" fill="#FFD371"/><path d="M141 1l27.713 49.5h-55.426L141 1z" fill="#9DDAC6"/></symbol><symbol viewBox="0 0 512 512" id="drafting-compass" xmlns="http://www.w3.org/2000/svg"><path fill="currentColor" d="M457.01 344.42c-25.05 20.33-52.63 37.18-82.54 49.05l54.38 94.19 53.95 23.04c9.81 4.19 20.89-2.21 22.17-12.8l7.02-58.25-54.98-95.23zm42.49-94.56c4.86-7.67 1.89-17.99-6.05-22.39l-28.07-15.57c-7.48-4.15-16.61-1.46-21.26 5.72C403.01 281.15 332.25 320 256 320c-23.93 0-47.23-4.25-69.41-11.53l67.36-116.68c.7.02 1.34.21 2.04.21s1.35-.19 2.04-.21l51.09 88.5c31.23-8.96 59.56-25.75 82.61-48.92l-51.79-89.71C347.39 128.03 352 112.63 352 96c0-53.02-42.98-96-96-96s-96 42.98-96 96c0 16.63 4.61 32.03 12.05 45.66l-68.3 118.31c-12.55-11.61-23.96-24.59-33.68-39-4.79-7.1-13.97-9.62-21.38-5.33l-27.75 16.07c-7.85 4.54-10.63 14.9-5.64 22.47 15.57 23.64 34.69 44.21 55.98 62.02L0 439.66l7.02 58.25c1.28 10.59 12.36 16.99 22.17 12.8l53.95-23.04 70.8-122.63C186.13 377.28 220.62 384 256 384c99.05 0 190.88-51.01 243.5-134.14zM256 64c17.67 0 32 14.33 32 32s-14.33 32-32 32-32-14.33-32-32 14.33-32 32-32z"/></symbol><symbol viewBox="0 0 512 512" id="magic" xmlns="http://www.w3.org/2000/svg"><path fill="currentColor" d="M224 96l16-32 32-16-32-16-16-32-16 32-32 16 32 16 16 32zM80 160l26.66-53.33L160 80l-53.34-26.67L80 0 53.34 53.33 0 80l53.34 26.67L80 160zm352 128l-26.66 53.33L352 368l53.34 26.67L432 448l26.66-53.33L512 368l-53.34-26.67L432 288zm70.62-193.77L417.77 9.38C411.53 3.12 403.34 0 395.15 0c-8.19 0-16.38 3.12-22.63 9.38L9.38 372.52c-12.5 12.5-12.5 32.76 0 45.25l84.85 84.85c6.25 6.25 14.44 9.37 22.62 9.37 8.19 0 16.38-3.12 22.63-9.37l363.14-363.15c12.5-12.48 12.5-32.75 0-45.24zM359.45 203.46l-50.91-50.91 86.6-86.6 50.91 50.91-86.6 86.6z"/></symbol><symbol class="epanel-main__divider" viewBox="0 0 100 10" preserveAspectRatio="none" id="panel-divider" xmlns="http://www.w3.org/2000/svg"><path fill="#FFF" d="M100 0v10H0z"/></symbol><symbol viewBox="0 0 512 512" id="pencil-ruler" xmlns="http://www.w3.org/2000/svg"><path fill="currentColor" d="M109.46 244.04l134.58-134.56-44.12-44.12-61.68 61.68a7.919 7.919 0 01-11.21 0l-11.21-11.21c-3.1-3.1-3.1-8.12 0-11.21l61.68-61.68-33.64-33.65C131.47-3.1 111.39-3.1 99 9.29L9.29 99c-12.38 12.39-12.39 32.47 0 44.86l100.17 100.18zm388.47-116.8c18.76-18.76 18.75-49.17 0-67.93l-45.25-45.25c-18.76-18.76-49.18-18.76-67.95 0l-46.02 46.01 113.2 113.2 46.02-46.03zM316.08 82.71l-297 296.96L.32 487.11c-2.53 14.49 10.09 27.11 24.59 24.56l107.45-18.84L429.28 195.9 316.08 82.71zm186.63 285.43l-33.64-33.64-61.68 61.68c-3.1 3.1-8.12 3.1-11.21 0l-11.21-11.21c-3.09-3.1-3.09-8.12 0-11.21l61.68-61.68-44.14-44.14L267.93 402.5l100.21 100.2c12.39 12.39 32.47 12.39 44.86 0l89.71-89.7c12.39-12.39 12.39-32.47 0-44.86z"/></symbol><symbol viewBox="0 0 160 34" id="savvycard-logo" xmlns="http://www.w3.org/2000/svg"><g fill-rule="nonzero" fill="none"><path d="M14.447 7.707a3.867 3.867 0 00-1.326-2.785 5.443 5.443 0 00-3.435-.935c-2.826 0-4.239.987-4.239 2.962 0 .701.322 1.362.87 1.782a7.317 7.317 0 002.826 1.203c1.536.371 2.862.713 3.978 1.025 1.052.289 2.084.654 3.087 1.09.52.22 1.015.497 1.478.825.462.33.86.745 1.174 1.225.342.542.598 1.136.76 1.76.206.814.3 1.653.283 2.494a6.59 6.59 0 01-.717 3.119 6.941 6.941 0 01-1.935 2.227 8.825 8.825 0 01-2.87 1.425c-1.13.334-2.301.499-3.478.49A12.398 12.398 0 013.1 23.543C1.305 22.058.285 19.803.339 17.44h4.804a3.57 3.57 0 001.478 2.962 5.896 5.896 0 003.63 1.092 6.076 6.076 0 003.587-.869 2.781 2.781 0 001.196-2.316c.051-.362.051-.73 0-1.092a2.032 2.032 0 00-.566-.89 3.747 3.747 0 00-1.13-.713 10.654 10.654 0 00-1.935-.49c-1.811-.386-3.383-.78-4.717-1.18a11.707 11.707 0 01-3.282-1.493 5.55 5.55 0 01-1.913-2.228 7.6 7.6 0 01-.609-3.251 7.396 7.396 0 01.544-2.985A6.023 6.023 0 013.078 1.76 8.246 8.246 0 015.817.223a11.754 11.754 0 013.847-.58 12.328 12.328 0 013.87.58 8.8 8.8 0 012.956 1.603 7.197 7.197 0 011.913 2.54 8.636 8.636 0 01.76 3.274h-4.716v.067z" fill="#FFF"/><path d="M31.207 24.857a7.513 7.513 0 01-.283-1.604 5.757 5.757 0 01-2.174 1.515 8.127 8.127 0 01-3.152.58 6.197 6.197 0 01-4.456-1.315 4.76 4.76 0 01-1.413-3.586 6.687 6.687 0 01.609-3.096 4.611 4.611 0 011.674-1.826 7.988 7.988 0 012.565-.98c.985-.208 2.065-.401 3.239-.58a6.123 6.123 0 002.369-.668c.426-.343.658-.88.618-1.434a1.675 1.675 0 00-.814-1.328 4.112 4.112 0 00-2.173-.49 3.08 3.08 0 00-2.305.735 3.468 3.468 0 00-.87 1.938h-4.347a8.377 8.377 0 01.457-2.561 4.931 4.931 0 011.326-2.027 6.148 6.148 0 012.37-1.292 12.09 12.09 0 013.63-.49c1.19-.03 2.378.127 3.52.468.873.262 1.671.735 2.327 1.38a5.288 5.288 0 011.26 2.228c.274.985.406 2.005.392 3.03v11.403h-4.369zm-.326-8.91a2.504 2.504 0 01-1.044.58c-.65.192-1.311.348-1.978.468a6.573 6.573 0 00-2.76 1.024 2.253 2.253 0 00-.762 1.804 1.94 1.94 0 00.607 1.555 1.84 1.84 0 001.567.472c.572.007 1.14-.099 1.674-.312a4.108 4.108 0 002.174-2.093 3.5 3.5 0 00.348-1.515l.174-1.982zM41.12 24.857L34.814 6.816h5.195l3.696 11.916 3.717-11.916h4.913L46.01 24.857z" fill="#FFF"/><path fill="#FFF" d="M58.031 24.857L51.727 6.816h5.195l3.761 11.916L64.4 6.816h4.913l-6.456 18.041zM80.617 22.474a3.725 3.725 0 01-1.804 1.893 6.397 6.397 0 01-2.957.668 7.052 7.052 0 01-2.587-.468 5.808 5.808 0 01-2.043-1.314 6.143 6.143 0 01-1.348-2.049 7.133 7.133 0 01-.5-2.695V6.815h4.652v11.003c-.167.88.079 1.79.664 2.455a2.747 2.747 0 002.314.931 3.575 3.575 0 002.587-.958 3.223 3.223 0 00.978-2.428V6.815h4.652v18.532a8.803 8.803 0 01-.63 3.408 7.286 7.286 0 01-1.717 2.54 7.56 7.56 0 01-2.631 1.647 9.054 9.054 0 01-3.173.557 7.687 7.687 0 01-5.826-2.027 7.757 7.757 0 01-1.87-5.657h4.348a3.435 3.435 0 00.913 2.54 3.701 3.701 0 002.739.912c.42.004.836-.087 1.217-.267.385-.183.732-.44 1.022-.758.286-.37.5-.794.63-1.247a4.555 4.555 0 00.26-1.604v-2.917h.11z"/><path d="M107.072 16.505a13.997 13.997 0 01-1.261 3.786 10.242 10.242 0 01-2.174 2.896 9.33 9.33 0 01-3.022 1.87 10.507 10.507 0 01-3.804.669 11.615 11.615 0 01-4.347-.802 9.34 9.34 0 01-3.522-2.45 11.641 11.641 0 01-2.174-3.987 16.508 16.508 0 01-.912-5.59 18.729 18.729 0 01.76-5.569 11.948 11.948 0 012.174-4.187 9.582 9.582 0 013.5-2.629A11.174 11.174 0 0196.898-.4c1.37-.016 2.732.218 4.022.69a9.52 9.52 0 013.108 1.894c.9.786 1.64 1.747 2.174 2.829.485 1.082.78 2.243.87 3.43h-4.978a5.749 5.749 0 00-1.935-3.252 5.445 5.445 0 00-4.133-1.101 5.52 5.52 0 00-3.67 2.237 11.606 11.606 0 00-1.48 6.28 11.676 11.676 0 001.457 6.326c.958 1.484 2.615 2.333 4.348 2.228a5.073 5.073 0 003.565-1.225 6.51 6.51 0 001.848-3.542h4.978v.112z" fill="#F68A1F"/><path d="M118.136 24.857a7.513 7.513 0 01-.282-1.604 5.757 5.757 0 01-2.174 1.515 8.127 8.127 0 01-3.152.58 6.196 6.196 0 01-4.478-1.315 4.76 4.76 0 01-1.413-3.586 6.687 6.687 0 01.609-3.096 4.611 4.611 0 011.673-1.826 7.966 7.966 0 012.565-.98c.986-.208 2.066-.401 3.24-.58a6.123 6.123 0 002.369-.668c.426-.343.657-.88.618-1.434a1.675 1.675 0 00-.814-1.328 4.112 4.112 0 00-2.174-.49 3.075 3.075 0 00-2.304.624 3.468 3.468 0 00-.87 1.938h-4.347a8.377 8.377 0 01.457-2.562 4.931 4.931 0 011.326-2.027 6.148 6.148 0 012.369-1.291c1.2-.314 2.438-.442 3.674-.38 1.19-.03 2.378.128 3.521.469.873.262 1.67.735 2.326 1.38a5.288 5.288 0 011.26 2.228c.275.985.406 2.005.392 3.03v11.403h-4.391zm-.326-8.91a2.504 2.504 0 01-1.043.58c-.651.192-1.311.348-1.978.468a6.573 6.573 0 00-2.761 1.024 2.253 2.253 0 00-.761 1.804 1.94 1.94 0 00.606 1.555 1.84 1.84 0 001.568.472c.572.007 1.14-.099 1.674-.312a4.108 4.108 0 002.173-2.093 3.5 3.5 0 00.348-1.515l.174-1.982zM123.44 24.857V6.816h4.348v2.227a5.846 5.846 0 011.195-1.448c.387-.33.82-.6 1.283-.802.43-.183.884-.303 1.348-.356a12.92 12.92 0 011.39 0h.61v4.922a7.66 7.66 0 00-1.283 0 3.704 3.704 0 00-3.301 1.072 3.914 3.914 0 00-1.047 3.383v9.4h-4.651l.108-.357zM155.612-.09a3.865 3.865 0 013.611 1.898 4.07 4.07 0 010 4.158 3.865 3.865 0 01-3.61 1.897A3.865 3.865 0 01152 5.966a4.07 4.07 0 010-4.158 3.865 3.865 0 013.611-1.897zm0 .803c-1.71 0-3.097 1.42-3.097 3.174 0 1.753 1.386 3.174 3.097 3.174 1.624-.037 2.916-1.41 2.891-3.074a3.139 3.139 0 00-.838-2.231 2.988 2.988 0 00-2.14-.954l.087-.09zm-.587 5.234h-.87V1.96c.49-.073.984-.11 1.479-.111.463-.044.928.065 1.326.312.259.198.405.515.391.846-.03.462-.36.846-.804.935.393.155.664.528.696.958.049.331.144.654.282.958h-.935a3.195 3.195 0 01-.304-.958.694.694 0 00-.273-.482.661.661 0 00-.531-.12h-.435V5.88l-.022.067zm0-2.227h.435c.5 0 .891-.179.891-.58 0-.4-.26-.6-.826-.6a2.122 2.122 0 00-.5 0v1.18z" fill="#F68A1F"/><path d="M145.46 24.857V22.63c-1.024 1.758-2.917 2.788-4.912 2.673a7.112 7.112 0 01-3.087-.669 6.743 6.743 0 01-2.391-1.915 9.3 9.3 0 01-1.565-3.052 13.374 13.374 0 01-.565-4.076c-.017-1.271.144-2.539.478-3.764a9.001 9.001 0 011.413-2.962 6.437 6.437 0 012.174-1.916 6.687 6.687 0 013.065-.668c2.096-.033 4.064 1.034 5.217 2.829V.2h4.586v24.657h-4.412zm-3.869-3.408a3.45 3.45 0 002.804-1.425 5.867 5.867 0 001.13-3.742c0-3.905-1.296-5.858-3.89-5.858-2.594 0-3.928 1.856-4 5.568a6.53 6.53 0 001.109 3.943 3.387 3.387 0 002.956 1.514h-.109z" fill="#F68A1F"/></g></symbol><symbol viewBox="0 0 160 34" id="savvycard-logo-black" xmlns="http://www.w3.org/2000/svg"><g fill-rule="nonzero" fill="none"><path d="M14.447 7.707a3.867 3.867 0 00-1.326-2.785 5.443 5.443 0 00-3.435-.935c-2.826 0-4.239.987-4.239 2.962 0 .701.322 1.362.87 1.782a7.317 7.317 0 002.826 1.203c1.536.371 2.862.713 3.978 1.025 1.052.289 2.084.654 3.087 1.09.52.22 1.015.497 1.478.825.462.33.86.745 1.174 1.225.342.542.598 1.136.76 1.76.206.814.3 1.653.283 2.494a6.59 6.59 0 01-.717 3.119 6.941 6.941 0 01-1.935 2.227 8.825 8.825 0 01-2.87 1.425c-1.13.334-2.301.499-3.478.49A12.398 12.398 0 013.1 23.543C1.305 22.058.285 19.803.339 17.44h4.804a3.57 3.57 0 001.478 2.962 5.896 5.896 0 003.63 1.092 6.076 6.076 0 003.587-.869 2.781 2.781 0 001.196-2.316c.051-.362.051-.73 0-1.092a2.032 2.032 0 00-.566-.89 3.747 3.747 0 00-1.13-.713 10.654 10.654 0 00-1.935-.49c-1.811-.386-3.383-.78-4.717-1.18a11.707 11.707 0 01-3.282-1.493 5.55 5.55 0 01-1.913-2.228 7.6 7.6 0 01-.609-3.251 7.396 7.396 0 01.544-2.985A6.023 6.023 0 013.078 1.76 8.246 8.246 0 015.817.223a11.754 11.754 0 013.847-.58 12.328 12.328 0 013.87.58 8.8 8.8 0 012.956 1.603 7.197 7.197 0 011.913 2.54 8.636 8.636 0 01.76 3.274h-4.716v.067z" fill="#000"/><path d="M31.207 24.857a7.513 7.513 0 01-.283-1.604 5.757 5.757 0 01-2.174 1.515 8.127 8.127 0 01-3.152.58 6.197 6.197 0 01-4.456-1.315 4.76 4.76 0 01-1.413-3.586 6.687 6.687 0 01.609-3.096 4.611 4.611 0 011.674-1.826 7.988 7.988 0 012.565-.98c.985-.208 2.065-.401 3.239-.58a6.123 6.123 0 002.369-.668c.426-.343.658-.88.618-1.434a1.675 1.675 0 00-.814-1.328 4.112 4.112 0 00-2.173-.49 3.08 3.08 0 00-2.305.735 3.468 3.468 0 00-.87 1.938h-4.347a8.377 8.377 0 01.457-2.561 4.931 4.931 0 011.326-2.027 6.148 6.148 0 012.37-1.292 12.09 12.09 0 013.63-.49c1.19-.03 2.378.127 3.52.468.873.262 1.671.735 2.327 1.38a5.288 5.288 0 011.26 2.228c.274.985.406 2.005.392 3.03v11.403h-4.369zm-.326-8.91a2.504 2.504 0 01-1.044.58c-.65.192-1.311.348-1.978.468a6.573 6.573 0 00-2.76 1.024 2.253 2.253 0 00-.762 1.804 1.94 1.94 0 00.607 1.555 1.84 1.84 0 001.567.472c.572.007 1.14-.099 1.674-.312a4.108 4.108 0 002.174-2.093 3.5 3.5 0 00.348-1.515l.174-1.982zM41.12 24.857L34.814 6.816h5.195l3.696 11.916 3.717-11.916h4.913L46.01 24.857z" fill="#000"/><path fill="#000" d="M58.031 24.857L51.727 6.816h5.195l3.761 11.916L64.4 6.816h4.913l-6.456 18.041zM80.617 22.474a3.725 3.725 0 01-1.804 1.893 6.397 6.397 0 01-2.957.668 7.052 7.052 0 01-2.587-.468 5.808 5.808 0 01-2.043-1.314 6.143 6.143 0 01-1.348-2.049 7.133 7.133 0 01-.5-2.695V6.815h4.652v11.003c-.167.88.079 1.79.664 2.455a2.747 2.747 0 002.314.931 3.575 3.575 0 002.587-.958 3.223 3.223 0 00.978-2.428V6.815h4.652v18.532a8.803 8.803 0 01-.63 3.408 7.286 7.286 0 01-1.717 2.54 7.56 7.56 0 01-2.631 1.647 9.054 9.054 0 01-3.173.557 7.687 7.687 0 01-5.826-2.027 7.757 7.757 0 01-1.87-5.657h4.348a3.435 3.435 0 00.913 2.54 3.701 3.701 0 002.739.912c.42.004.836-.087 1.217-.267.385-.183.732-.44 1.022-.758.286-.37.5-.794.63-1.247a4.555 4.555 0 00.26-1.604v-2.917h.11z"/><path d="M107.072 16.505a13.997 13.997 0 01-1.261 3.786 10.242 10.242 0 01-2.174 2.896 9.33 9.33 0 01-3.022 1.87 10.507 10.507 0 01-3.804.669 11.615 11.615 0 01-4.347-.802 9.34 9.34 0 01-3.522-2.45 11.641 11.641 0 01-2.174-3.987 16.508 16.508 0 01-.912-5.59 18.729 18.729 0 01.76-5.569 11.948 11.948 0 012.174-4.187 9.582 9.582 0 013.5-2.629A11.174 11.174 0 0196.898-.4c1.37-.016 2.732.218 4.022.69a9.52 9.52 0 013.108 1.894c.9.786 1.64 1.747 2.174 2.829.485 1.082.78 2.243.87 3.43h-4.978a5.749 5.749 0 00-1.935-3.252 5.445 5.445 0 00-4.133-1.101 5.52 5.52 0 00-3.67 2.237 11.606 11.606 0 00-1.48 6.28 11.676 11.676 0 001.457 6.326c.958 1.484 2.615 2.333 4.348 2.228a5.073 5.073 0 003.565-1.225 6.51 6.51 0 001.848-3.542h4.978v.112z" fill="#F68A1F"/><path d="M118.136 24.857a7.513 7.513 0 01-.282-1.604 5.757 5.757 0 01-2.174 1.515 8.127 8.127 0 01-3.152.58 6.196 6.196 0 01-4.478-1.315 4.76 4.76 0 01-1.413-3.586 6.687 6.687 0 01.609-3.096 4.611 4.611 0 011.673-1.826 7.966 7.966 0 012.565-.98c.986-.208 2.066-.401 3.24-.58a6.123 6.123 0 002.369-.668c.426-.343.657-.88.618-1.434a1.675 1.675 0 00-.814-1.328 4.112 4.112 0 00-2.174-.49 3.075 3.075 0 00-2.304.624 3.468 3.468 0 00-.87 1.938h-4.347a8.377 8.377 0 01.457-2.562 4.931 4.931 0 011.326-2.027 6.148 6.148 0 012.369-1.291c1.2-.314 2.438-.442 3.674-.38 1.19-.03 2.378.128 3.521.469.873.262 1.67.735 2.326 1.38a5.288 5.288 0 011.26 2.228c.275.985.406 2.005.392 3.03v11.403h-4.391zm-.326-8.91a2.504 2.504 0 01-1.043.58c-.651.192-1.311.348-1.978.468a6.573 6.573 0 00-2.761 1.024 2.253 2.253 0 00-.761 1.804 1.94 1.94 0 00.606 1.555 1.84 1.84 0 001.568.472c.572.007 1.14-.099 1.674-.312a4.108 4.108 0 002.173-2.093 3.5 3.5 0 00.348-1.515l.174-1.982zM123.44 24.857V6.816h4.348v2.227a5.846 5.846 0 011.195-1.448c.387-.33.82-.6 1.283-.802.43-.183.884-.303 1.348-.356a12.92 12.92 0 011.39 0h.61v4.922a7.66 7.66 0 00-1.283 0 3.704 3.704 0 00-3.301 1.072 3.914 3.914 0 00-1.047 3.383v9.4h-4.651l.108-.357zM155.612-.09a3.865 3.865 0 013.611 1.898 4.07 4.07 0 010 4.158 3.865 3.865 0 01-3.61 1.897A3.865 3.865 0 01152 5.966a4.07 4.07 0 010-4.158 3.865 3.865 0 013.611-1.897zm0 .803c-1.71 0-3.097 1.42-3.097 3.174 0 1.753 1.386 3.174 3.097 3.174 1.624-.037 2.916-1.41 2.891-3.074a3.139 3.139 0 00-.838-2.231 2.988 2.988 0 00-2.14-.954l.087-.09zm-.587 5.234h-.87V1.96c.49-.073.984-.11 1.479-.111.463-.044.928.065 1.326.312.259.198.405.515.391.846-.03.462-.36.846-.804.935.393.155.664.528.696.958.049.331.144.654.282.958h-.935a3.195 3.195 0 01-.304-.958.694.694 0 00-.273-.482.661.661 0 00-.531-.12h-.435V5.88l-.022.067zm0-2.227h.435c.5 0 .891-.179.891-.58 0-.4-.26-.6-.826-.6a2.122 2.122 0 00-.5 0v1.18z" fill="#F68A1F"/><path d="M145.46 24.857V22.63c-1.024 1.758-2.917 2.788-4.912 2.673a7.112 7.112 0 01-3.087-.669 6.743 6.743 0 01-2.391-1.915 9.3 9.3 0 01-1.565-3.052 13.374 13.374 0 01-.565-4.076c-.017-1.271.144-2.539.478-3.764a9.001 9.001 0 011.413-2.962 6.437 6.437 0 012.174-1.916 6.687 6.687 0 013.065-.668c2.096-.033 4.064 1.034 5.217 2.829V.2h4.586v24.657h-4.412zm-3.869-3.408a3.45 3.45 0 002.804-1.425 5.867 5.867 0 001.13-3.742c0-3.905-1.296-5.858-3.89-5.858-2.594 0-3.928 1.856-4 5.568a6.53 6.53 0 001.109 3.943 3.387 3.387 0 002.956 1.514h-.109z" fill="#F68A1F"/></g></symbol><symbol viewBox="0 0 8 8" id="search" xmlns="http://www.w3.org/2000/svg"><path d="M3.5 0C1.57 0 0 1.57 0 3.5S1.57 7 3.5 7c.59 0 1.17-.14 1.66-.41a1 1 0 00.13.13l1 1a1.02 1.02 0 101.44-1.44l-1-1a1 1 0 00-.16-.13c.27-.49.44-1.06.44-1.66 0-1.93-1.57-3.5-3.5-3.5zm0 1C4.89 1 6 2.11 6 3.5c0 .66-.24 1.27-.66 1.72l-.03.03a1 1 0 00-.13.13c-.44.4-1.04.63-1.69.63-1.39 0-2.5-1.11-2.5-2.5s1.11-2.5 2.5-2.5z" fill="#fff"/></symbol><symbol viewBox="0 0 24 24" id="tick" xmlns="http://www.w3.org/2000/svg"><path fill="#FA9E42" d="M20.285 2L9 13.567 3.714 8.556 0 12.272 9 21 24 5.715z"/></symbol></svg>